<svg xmlns="http://www.w3.org/2000/svg" viewBox="0 0 256 256" width="256" height="256" role="img" aria-labelledby="t">
  <title id="t">zeceipt</title>
  <defs>
    <linearGradient id="bg" x1="0" y1="0" x2="1" y2="1">
      <stop offset="0" stop-color="#1d2230"/>
      <stop offset="1" stop-color="#0e1118"/>
    </linearGradient>
    <linearGradient id="gold" x1="0" y1="0" x2="1" y2="0">
      <stop offset="0" stop-color="#f7c948"/>
      <stop offset="1" stop-color="#e9a21b"/>
    </linearGradient>
    <pattern id="hatch" width="6" height="6" patternUnits="userSpaceOnUse" patternTransform="rotate(45)">
      <rect width="6" height="6" fill="#d5d8df"/>
      <rect width="3" height="6" fill="#bfc3cc"/>
    </pattern>
  </defs>
  <rect x="1" y="1" width="254" height="254" rx="55" fill="url(#bg)" stroke="#3a4156" stroke-width="2"/>
  <!-- the receipt: a slip with a torn bottom edge -->
  <path d="M68 40 H188 V206 l-10 -10 l-10 10 l-10 -10 l-10 10 l-10 -10 l-10 10 l-10 -10 l-10 10 l-10 -10 l-10 10 l-10 -10 l-10 10 Z" fill="#f6f3ea"/>
  <!-- other outputs stay shielded -->
  <rect x="86" y="64" width="84" height="14" rx="7" fill="url(#hatch)"/>
  <rect x="86" y="92" width="62" height="14" rx="7" fill="url(#hatch)"/>
  <rect x="86" y="160" width="74" height="14" rx="7" fill="url(#hatch)"/>
  <!-- one output, disclosed and verified -->
  <rect x="58" y="116" width="140" height="32" rx="16" fill="url(#gold)"/>
  <circle cx="78" cy="132" r="10" fill="#0e1118"/>
  <path d="M73 132.5 l3.6 3.6 l7 -7.4" fill="none" stroke="#f7c948" stroke-width="3.2" stroke-linecap="round" stroke-linejoin="round"/>
  <rect x="96" y="127" width="52" height="10" rx="5" fill="#0e1118" opacity="0.85"/>
  <rect x="156" y="127" width="28" height="10" rx="5" fill="#0e1118" opacity="0.45"/>
</svg>
